<svg width="383" height="153" viewBox="0 0 383 153" fill="none" xmlns="http://www.w3.org/2000/svg">
<g clip-path="url(#clip0)">
<path d="M175.81 116.59H183C184.185 116.62 185.359 116.359 186.42 115.83C187.325 115.361 188.07 114.633 188.56 113.74C189.02 112.821 189.26 111.808 189.26 110.78C189.26 109.752 189.02 108.739 188.56 107.82C188.077 106.954 187.341 106.256 186.45 105.82C185.382 105.275 184.199 104.994 183 105H175.25L176.77 103.48V133.48H171.1V100.05H183.56C185.714 99.9889 187.848 100.478 189.76 101.47C191.421 102.348 192.785 103.698 193.68 105.35C194.574 107.005 195.032 108.86 195.01 110.74C195.028 112.627 194.539 114.485 193.594 116.119C192.65 117.753 191.284 119.103 189.64 120.03C187.831 121.056 185.779 121.574 183.7 121.53H175.81V116.59ZM196.81 133.51H190.35L181.65 119.77H188.06L196.81 133.51Z" fill="#2F3136"/>
<path d="M215.26 117.44C215.284 116.624 215.08 115.816 214.67 115.11C214.26 114.472 213.673 113.968 212.98 113.66C212.069 113.293 211.089 113.129 210.108 113.179C209.127 113.229 208.169 113.492 207.3 113.95C206.546 114.403 205.981 115.113 205.71 115.95H200.58C200.949 113.871 202.092 112.009 203.78 110.74C205.789 109.294 208.227 108.569 210.7 108.68C212.479 108.632 214.247 108.973 215.88 109.68C217.305 110.32 218.511 111.363 219.35 112.68C220.207 114.124 220.637 115.781 220.59 117.46V133.46H215.59V128.8L216.3 129.66C215.527 131.032 214.37 132.148 212.97 132.87C211.461 133.655 209.781 134.053 208.08 134.03C206.601 134.054 205.136 133.735 203.8 133.1C202.53 132.516 201.461 131.571 200.725 130.383C199.989 129.195 199.618 127.817 199.66 126.42C199.612 125.343 199.822 124.27 200.273 123.291C200.723 122.312 201.401 121.454 202.25 120.79C204.347 119.344 206.867 118.64 209.41 118.79H216.54V122.88H209.79C208.593 122.816 207.405 123.123 206.39 123.76C205.985 124.034 205.657 124.406 205.437 124.842C205.216 125.277 205.111 125.762 205.13 126.25C205.105 126.726 205.193 127.201 205.388 127.635C205.583 128.07 205.878 128.452 206.25 128.75C207.121 129.376 208.179 129.686 209.25 129.63C210.285 129.641 211.31 129.423 212.25 128.99C213.143 128.584 213.907 127.941 214.46 127.13C215.021 126.313 215.311 125.341 215.29 124.35L215.26 117.44Z" fill="#2F3136"/>
<path d="M229.67 98.76C230.113 98.7501 230.554 98.829 230.966 98.9922C231.378 99.1554 231.754 99.3994 232.07 99.71C232.39 100.007 232.644 100.368 232.816 100.769C232.989 101.17 233.075 101.603 233.07 102.04C233.079 102.485 232.995 102.926 232.822 103.336C232.65 103.746 232.394 104.115 232.07 104.42C231.758 104.74 231.384 104.993 230.972 105.165C230.559 105.337 230.117 105.423 229.67 105.42C229.23 105.431 228.792 105.352 228.383 105.189C227.974 105.025 227.602 104.781 227.291 104.469C226.979 104.158 226.734 103.786 226.571 103.377C226.408 102.968 226.329 102.53 226.34 102.09C226.33 101.657 226.409 101.227 226.572 100.826C226.736 100.425 226.98 100.062 227.29 99.76C227.597 99.4386 227.966 99.1839 228.376 99.0119C228.785 98.8398 229.226 98.7541 229.67 98.76V98.76ZM232.38 133.51H227V109.27H232.42L232.38 133.51Z" fill="#2F3136"/>
<path d="M250.72 109.27V113.88H236.46V109.27H250.72ZM240.46 133.51V106.89C240.382 105.811 240.53 104.727 240.893 103.708C241.256 102.689 241.827 101.757 242.57 100.97C243.98 99.63 246.05 98.97 248.77 98.97H250.72V103.49H249.39C248.424 103.424 247.469 103.72 246.71 104.32C246.37 104.683 246.111 105.114 245.951 105.585C245.79 106.055 245.732 106.555 245.78 107.05V111.05L245.87 111.43V133.49L240.46 133.51Z" fill="#2F3136"/>
<path d="M267.88 109.27V113.88H253.62V109.27H267.88ZM257.61 133.51V106.89C257.535 105.81 257.684 104.727 258.049 103.708C258.414 102.688 258.986 101.756 259.73 100.97C261.14 99.63 263.21 98.97 265.93 98.97H267.88V103.49H266.55C265.582 103.426 264.624 103.722 263.86 104.32C263.524 104.685 263.268 105.117 263.11 105.587C262.951 106.057 262.894 106.556 262.94 107.05V111.05L263.03 111.43V133.49L257.61 133.51Z" fill="#2F3136"/>
<path d="M273.4 118.87H288.32L287.7 119.73V119.3C287.798 117.668 287.253 116.063 286.18 114.83C285.646 114.282 285.002 113.855 284.29 113.575C283.577 113.296 282.814 113.172 282.05 113.21C280.955 113.186 279.873 113.448 278.91 113.97C278.016 114.482 277.29 115.243 276.82 116.16C276.29 117.19 276.012 118.331 276.01 119.49V123.05C275.993 124.213 276.279 125.361 276.84 126.38C277.388 127.349 278.185 128.154 279.15 128.71C280.177 129.291 281.341 129.584 282.52 129.56C283.681 129.61 284.83 129.321 285.83 128.73C286.558 128.333 287.134 127.707 287.47 126.95H292.79C292.533 128.167 291.995 129.307 291.22 130.28C290.289 131.44 289.101 132.368 287.75 132.99C286.083 133.755 284.263 134.128 282.43 134.08C280.241 134.125 278.077 133.601 276.15 132.56C274.342 131.546 272.879 130.013 271.95 128.16C270.911 126.075 270.396 123.769 270.45 121.44C270.398 119.105 270.902 116.792 271.92 114.69C272.826 112.837 274.255 111.29 276.03 110.24C277.874 109.19 279.968 108.658 282.09 108.7C284.114 108.657 286.112 109.165 287.87 110.17C289.541 111.162 290.881 112.627 291.72 114.38C292.655 116.36 293.117 118.531 293.07 120.72V123H273.4V118.87Z" fill="#2F3136"/>
<path d="M301 98.76C301.443 98.7501 301.884 98.829 302.296 98.9922C302.708 99.1554 303.084 99.3994 303.4 99.71C303.72 100.007 303.974 100.368 304.146 100.769C304.319 101.17 304.405 101.603 304.4 102.04C304.409 102.485 304.325 102.926 304.152 103.336C303.98 103.746 303.724 104.115 303.4 104.42C303.088 104.74 302.714 104.993 302.302 105.165C301.89 105.337 301.447 105.423 301 105.42C300.56 105.431 300.122 105.352 299.713 105.189C299.304 105.025 298.932 104.781 298.621 104.469C298.309 104.158 298.065 103.786 297.901 103.377C297.738 102.968 297.659 102.53 297.67 102.09C297.66 101.657 297.739 101.227 297.902 100.826C298.066 100.425 298.31 100.062 298.62 99.76C298.927 99.4386 299.296 99.1839 299.706 99.0119C300.115 98.8398 300.556 98.7541 301 98.76V98.76ZM303.7 133.51H298.29V109.27H303.7V133.51Z" fill="#2F3136"/>
<path d="M314.23 126.52C314.329 127.009 314.533 127.471 314.828 127.873C315.124 128.276 315.503 128.609 315.94 128.85C317.003 129.426 318.202 129.706 319.41 129.66C320.56 129.723 321.702 129.441 322.69 128.85C323.068 128.605 323.377 128.266 323.585 127.867C323.794 127.467 323.895 127.02 323.88 126.57C323.892 126.223 323.823 125.879 323.677 125.564C323.531 125.25 323.313 124.974 323.04 124.76C322.349 124.268 321.536 123.974 320.69 123.91L316.41 123.34C314.518 123.169 312.718 122.45 311.23 121.27C310.579 120.674 310.071 119.94 309.742 119.121C309.413 118.302 309.272 117.42 309.33 116.54C309.316 115.11 309.75 113.711 310.57 112.54C311.434 111.318 312.617 110.356 313.99 109.76C315.546 109.076 317.231 108.735 318.93 108.76C320.564 108.735 322.187 109.027 323.71 109.62C325.05 110.137 326.23 111 327.13 112.12C328.014 113.239 328.581 114.576 328.77 115.99H323.5C323.222 115.098 322.628 114.337 321.83 113.85C320.913 113.346 319.876 113.101 318.83 113.14C317.764 113.092 316.712 113.39 315.83 113.99C315.478 114.226 315.19 114.544 314.99 114.917C314.789 115.29 314.683 115.707 314.68 116.13C314.662 116.463 314.723 116.796 314.856 117.101C314.99 117.407 315.193 117.677 315.45 117.89C316.121 118.364 316.91 118.645 317.73 118.7L322.05 119.22C323.984 119.389 325.823 120.135 327.33 121.36C327.997 121.981 328.519 122.743 328.856 123.591C329.193 124.438 329.338 125.35 329.28 126.26C329.323 127.773 328.87 129.258 327.99 130.49C327.095 131.695 325.878 132.624 324.48 133.17C322.891 133.809 321.192 134.125 319.48 134.1C317.798 134.116 316.125 133.852 314.53 133.32C313.071 132.834 311.762 131.98 310.73 130.84C309.677 129.64 309.042 128.132 308.92 126.54L314.23 126.52Z" fill="#2F3136"/>
<path d="M336 118.87H350.93L350.31 119.73V119.3C350.403 117.669 349.858 116.066 348.79 114.83C348.254 114.283 347.607 113.855 346.894 113.576C346.18 113.297 345.415 113.172 344.65 113.21C343.555 113.187 342.473 113.449 341.51 113.97C340.62 114.488 339.896 115.247 339.42 116.16C338.895 117.192 338.617 118.332 338.61 119.49V123.05C338.591 124.215 338.881 125.364 339.45 126.38C339.991 127.351 340.786 128.156 341.75 128.71C342.78 129.291 343.948 129.585 345.13 129.56C346.287 129.608 347.433 129.319 348.43 128.73C349.126 128.337 349.676 127.73 350 127H355.32C355.065 128.218 354.528 129.359 353.75 130.33C352.82 131.473 351.64 132.387 350.3 133C348.633 133.765 346.813 134.138 344.98 134.09C342.793 134.136 340.633 133.612 338.71 132.57C336.899 131.556 335.433 130.024 334.5 128.17C333.461 126.085 332.946 123.779 333 121.45C332.946 119.114 333.454 116.799 334.48 114.7C335.383 112.845 336.813 111.297 338.59 110.25C340.434 109.2 342.528 108.668 344.65 108.71C346.671 108.668 348.665 109.176 350.42 110.18C352.094 111.169 353.434 112.635 354.27 114.39C355.213 116.368 355.679 118.539 355.63 120.73V123H336V118.87Z" fill="#2F3136"/>
<path d="M366 109.27V114.27L365.33 113.46C365.562 112.636 366.007 111.888 366.62 111.29C367.394 110.488 368.323 109.852 369.35 109.42C370.571 108.892 371.89 108.633 373.22 108.66C374.761 108.641 376.285 108.983 377.67 109.66C379.04 110.35 380.167 111.442 380.9 112.79C381.759 114.431 382.176 116.268 382.11 118.12V133.47H376.69V119.15C376.727 118.084 376.507 117.024 376.05 116.06C375.663 115.28 375.05 114.635 374.29 114.21C373.494 113.785 372.602 113.572 371.7 113.59C370.771 113.586 369.853 113.799 369.02 114.21C368.161 114.637 367.448 115.308 366.97 116.14C366.416 117.149 366.146 118.29 366.19 119.44V133.51H360.77V109.27H366Z" fill="#2F3136"/>
<path d="M171 16.94H191.1C195.472 16.8717 199.812 17.688 203.86 19.34C207.487 20.8432 210.773 23.0643 213.52 25.87C216.194 28.6262 218.277 31.8998 219.64 35.49C221.068 39.2521 221.787 43.2461 221.76 47.27C221.786 51.3654 221.068 55.4315 219.64 59.27C218.285 62.8968 216.202 66.2081 213.52 69C210.777 71.8304 207.492 74.0786 203.86 75.61C199.819 77.2897 195.476 78.1202 191.1 78.05H171V16.94ZM190.82 68.94C193.682 68.9888 196.52 68.4049 199.13 67.23C201.515 66.1384 203.642 64.5536 205.37 62.58C207.136 60.5636 208.495 58.2237 209.37 55.69C210.311 52.9764 210.781 50.122 210.76 47.25C210.783 44.439 210.309 41.6461 209.36 39C208.472 36.5203 207.114 34.2352 205.36 32.27C203.626 30.3236 201.499 28.7661 199.12 27.7C196.502 26.5527 193.668 25.9831 190.81 26.03H181.81V69L190.82 68.94Z" fill="#2F3136"/>
<path d="M260.32 79.07C255.866 79.1326 251.445 78.2994 247.32 76.62C243.609 75.0932 240.26 72.8037 237.49 69.9C234.771 66.9935 232.666 63.5686 231.3 59.83C229.836 55.8336 229.104 51.606 229.14 47.35C229.094 43.139 229.812 38.9546 231.26 35C232.625 31.2821 234.731 27.88 237.45 25C240.215 22.1281 243.549 19.8664 247.24 18.36C254.715 15.5176 262.909 15.1668 270.6 17.36C273.042 18.1257 275.363 19.237 277.49 20.66C278.989 21.6578 280.3 22.914 281.36 24.37C281.956 25.1697 282.425 26.0569 282.75 27V32.87H274.51C274.295 32.3135 274.024 31.7807 273.7 31.28C273.064 30.2703 272.263 29.3746 271.33 28.63C270.024 27.5731 268.564 26.7231 267 26.11C264.861 25.3179 262.59 24.9444 260.31 25.01C257.324 24.9573 254.362 25.5544 251.63 26.76C249.186 27.865 247.015 29.4934 245.27 31.53C243.516 33.6193 242.188 36.0312 241.36 38.63C240.441 41.4447 239.982 44.3891 240 47.35C239.976 50.3531 240.431 53.3407 241.35 56.2C242.177 58.8287 243.52 61.2662 245.3 63.37C247.056 65.4249 249.24 67.0701 251.7 68.19C254.462 69.4014 257.454 69.9985 260.47 69.94C262.955 69.9936 265.437 69.7179 267.85 69.12C269.547 68.6819 271.198 68.0825 272.78 67.33V54.33H257.63V45.56H283.32V71.56C282.775 72.1754 282.157 72.7228 281.48 73.19C280.086 74.2006 278.583 75.0525 277 75.73C274.744 76.7194 272.4 77.4961 270 78.05C266.825 78.771 263.576 79.1134 260.32 79.07Z" fill="#2F3136"/>
<path d="M307.21 26.07H288.45V16.94H336.81V26.07H318.05V78.07H307.21V26.07Z" fill="#2F3136"/>
<path d="M345.61 16.94H356.46V69H382V78.13H345.61V16.94Z" fill="#2F3136"/>
<path d="M114.4 0H38.14C17.0759 0 0 17.0759 0 38.14V114.4C0 135.464 17.0759 152.54 38.14 152.54H114.4C135.464 152.54 152.54 135.464 152.54 114.4V38.14C152.54 17.0759 135.464 0 114.4 0Z" fill="#F4E236"/>
<path d="M44.5599 122.23L76.2699 90.23L107.98 122.23L120.56 109.55L88.8499 77.55L95.4599 70.87V57.7L100.06 53.06V64.56L104.06 68.56L120.14 52.34L124.14 56.34C124.081 49.1765 121.208 42.3235 116.14 37.26C108.18 29.6 99.5999 33.07 96.6699 36L80.5999 52.25L84.6899 56.37L76.2699 64.88L67.8399 56.37L71.9399 52.25L55.8699 36C52.9399 33 44.3599 29.57 36.4099 37.27C31.3378 42.3304 28.4635 49.1854 28.4099 56.35L32.4099 52.35L48.4799 68.59L52.4799 64.59V53.06L57.0799 57.7V70.88L63.6899 77.56L31.9999 109.55L44.5599 122.23Z" fill="#2F3136"/>
</g>
<defs>
<clipPath id="clip0">
<rect width="382.15" height="152.54" fill="white"/>
</clipPath>
</defs>
</svg>
