<svg width="153" height="153" viewBox="0 0 153 153" fill="none" xmlns="http://www.w3.org/2000/svg">
<path d="M114.4 0H38.14C17.0759 0 0 17.0759 0 38.14V114.4C0 135.464 17.0759 152.54 38.14 152.54H114.4C135.464 152.54 152.54 135.464 152.54 114.4V38.14C152.54 17.0759 135.464 0 114.4 0Z" fill="#F4E236"/>
<path d="M44.5599 122.23L76.2699 90.23L107.98 122.23L120.56 109.55L88.8499 77.55L95.4599 70.87V57.7L100.06 53.06V64.56L104.06 68.56L120.14 52.34L124.14 56.34C124.081 49.1765 121.208 42.3235 116.14 37.26C108.18 29.6 99.5999 33.07 96.6699 36L80.5999 52.25L84.6899 56.37L76.2699 64.88L67.8399 56.37L71.9399 52.25L55.8699 36C52.9399 33 44.3599 29.57 36.4099 37.27C31.3378 42.3304 28.4635 49.1854 28.4099 56.35L32.4099 52.35L48.4799 68.59L52.4799 64.59V53.06L57.0799 57.7V70.88L63.6899 77.56L31.9999 109.55L44.5599 122.23Z" fill="#2F3136"/>
</svg>
