<svg width="24" height="24" viewBox="0 0 24 24" fill="none" xmlns="http://www.w3.org/2000/svg">
<path d="M1.9306 2.2929C2.1181 2.1054 2.3725 2 2.6377 2H22.6377C23.19 2 23.6377 2.4477 23.6377 3V19C23.6377 19.5523 23.19 20 22.6377 20H7.6377V18H21.6377V4H3.6377V9H1.6377V3C1.6377 2.7348 1.7431 2.4804 1.9306 2.2929Z" fill="#2B2D33"/>
<path d="M1 13.9043C1.0182 13.043 1.3145 12.3571 1.8887 11.8467C2.4811 11.3135 3.2923 11.0469 4.3223 11.0469C5.293 11.0469 6.0791 11.293 6.6807 11.7852C7.2731 12.2728 7.5693 12.9085 7.5693 13.6924C7.5693 14.6631 7.0817 15.4355 6.1065 16.0098C5.6507 16.2741 5.3431 16.5111 5.1836 16.7207C5.0241 16.9303 4.9443 17.2038 4.9443 17.541V17.9033H3.1328L3.1191 17.5068C3.0736 16.9782 3.1488 16.5384 3.3447 16.1875C3.5361 15.8548 3.8711 15.5472 4.3496 15.2646C4.7917 15.0003 5.0925 14.7633 5.252 14.5537C5.416 14.3441 5.4981 14.0775 5.4981 13.7539C5.4981 13.4258 5.3796 13.1569 5.1426 12.9473C4.901 12.7376 4.5866 12.6328 4.1992 12.6328C3.8073 12.6328 3.4906 12.749 3.249 12.9814C3.0075 13.2093 2.8753 13.5169 2.8525 13.9043H1Z" fill="#2B2D33"/>
<path d="M4.06254 21.1709C3.75264 21.1709 3.49064 21.0661 3.27644 20.8564C3.05764 20.6514 2.94824 20.3984 2.94824 20.0977C2.94824 19.7969 3.05764 19.5417 3.27644 19.332C3.49064 19.127 3.75264 19.0244 4.06254 19.0244C4.37244 19.0244 4.63674 19.127 4.85554 19.332C5.07424 19.5417 5.18364 19.7969 5.18364 20.0977C5.18364 20.3984 5.07424 20.6514 4.85554 20.8564C4.63674 21.0661 4.37244 21.1709 4.06254 21.1709Z" fill="#2B2D33"/>
<path d="M12.6377 12.6238L10.4311 14.8611L8.9847 13.4041L11.1917 11.1656L10.4311 10.398V8.88248L9.90289 8.34918V9.67088L9.4432 10.1347L7.59489 8.26998L7.1377 8.73098C7.141 8.38328 7.2098 7.37688 8.0561 6.53788C8.9694 5.65178 9.9557 6.05098 10.293 6.39158L12.1404 8.25528L11.6691 8.73008L12.6377 9.70728L13.6061 8.73008L13.135 8.25528L14.9821 6.39158C15.3193 6.05098 16.3056 5.65178 17.2189 6.53788C18.0654 7.37688 18.1342 8.38328 18.1377 8.73098L17.6805 8.26998L15.832 10.1347L15.3725 9.67088V8.34918L14.8439 8.88248V10.398L14.0834 11.1656L17.7294 14.843L16.2832 16.3L12.6377 12.6238Z" fill="#2B2D33"/>
</svg>
