<svg width="30" height="30" viewBox="0 0 30 30" fill="none" xmlns="http://www.w3.org/2000/svg">
<path d="M25.1094 7.75C25.332 7.75 25.5547 7.86133 25.7402 8.00977C25.8887 8.19531 26 8.41797 26 8.64062V10.7188C26 11.3867 25.7773 12.0547 25.4062 12.6855C24.998 13.3535 24.4414 13.9473 23.6992 14.4668C22.5117 15.3203 21.1387 15.8398 19.6172 15.9883C19.2461 16.582 18.875 17.1387 18.4297 17.584C18.1328 17.918 17.7988 18.2148 17.502 18.4375L17.0938 18.7344V21.4062H18.875C19.543 21.4062 20.0996 21.5918 20.5449 21.9629C20.9902 22.334 21.25 22.8535 21.25 23.4844V23.9297C21.25 24.0781 21.1758 24.1895 21.1016 24.2637C21.0273 24.3379 20.916 24.375 20.8047 24.375H9.82031C9.67188 24.375 9.56055 24.3379 9.48633 24.2637C9.41211 24.1895 9.375 24.0781 9.375 23.9297V23.4844C9.375 22.8535 9.59766 22.334 10.043 21.9629C10.4883 21.5918 11.082 21.4062 11.75 21.4062H13.5312V18.7344L13.123 18.4375C12.7891 18.2148 12.4922 17.918 12.1953 17.584C11.75 17.1387 11.3418 16.582 11.0078 15.9883C9.44922 15.8398 8.11328 15.3203 6.92578 14.4668C6.18359 13.9473 5.58984 13.3535 5.21875 12.6855C4.81055 12.0547 4.625 11.3867 4.625 10.7188V8.64062C4.625 8.41797 4.69922 8.19531 4.88477 8.00977C5.0332 7.86133 5.25586 7.75 5.51562 7.75H9.375V6.26562C9.375 6.04297 9.44922 5.82031 9.63477 5.63477C9.7832 5.48633 10.0059 5.375 10.2656 5.375H20.3594C20.582 5.375 20.8047 5.48633 20.9902 5.63477C21.1387 5.82031 21.25 6.04297 21.25 6.26562V7.75H25.1094ZM8.29883 12.5371C8.74414 12.8711 9.26367 13.1309 9.85742 13.3164C9.56055 12.3145 9.41211 11.2383 9.375 10.125H7V10.7188C7 10.9785 7.11133 11.2754 7.33398 11.5723C7.55664 11.9062 7.85352 12.2402 8.29883 12.5371ZM23.625 10.7188V10.125H21.25C21.1758 11.2383 21.0273 12.3145 20.7676 13.3164C21.3242 13.1309 21.8438 12.8711 22.3262 12.5371C22.6602 12.2773 22.957 11.9805 23.2168 11.6465C23.4766 11.3125 23.625 11.0156 23.625 10.7188Z" fill="#524C31"/>
</svg>
