<svg width="30" height="30" viewBox="0 0 30 30" fill="none" xmlns="http://www.w3.org/2000/svg">
<path d="M22.8438 22C22.9922 22 23.1406 22.0742 23.252 22.1855C23.3633 22.2969 23.4375 22.4453 23.4375 22.5938V23.7812C23.4375 23.9668 23.3633 24.1152 23.252 24.2266C23.1406 24.3379 22.9922 24.375 22.8438 24.375H7.40625C7.2207 24.375 7.07227 24.3379 6.96094 24.2266C6.84961 24.1152 6.8125 23.9668 6.8125 23.7812V22.5938C6.8125 22.4453 6.84961 22.2969 6.96094 22.1855C7.07227 22.0742 7.2207 22 7.40625 22H22.8438ZM25.2188 10.125C25.7012 10.125 26.1094 10.3105 26.4805 10.6445C26.8145 11.0156 27 11.4238 27 11.9062C27 12.4258 26.8145 12.834 26.4805 13.168C26.1094 13.5391 25.7012 13.6875 25.2188 13.6875L24.9219 13.6504L22.25 20.8125H8L5.32812 13.6504L5.03125 13.6875C4.51172 13.6875 4.10352 13.5391 3.76953 13.168C3.39844 12.834 3.25 12.4258 3.25 11.9062C3.25 11.4238 3.39844 11.0156 3.76953 10.6445C4.10352 10.3105 4.51172 10.125 5.03125 10.125C5.51367 10.125 5.92188 10.3105 6.29297 10.6445C6.62695 11.0156 6.8125 11.4238 6.8125 11.9062C6.8125 12.166 6.73828 12.4258 6.66406 12.6484L9.33594 14.2441C9.5957 14.4297 9.89258 14.4668 10.2266 14.3926C10.5605 14.3184 10.8203 14.1328 10.9688 13.8359L14.0117 8.5293C13.5664 8.1582 13.3438 7.71289 13.3438 7.15625C13.3438 6.67383 13.4922 6.26562 13.8633 5.89453C14.1973 5.56055 14.6055 5.375 15.125 5.375C15.6074 5.375 16.0156 5.56055 16.3867 5.89453C16.7207 6.26562 16.9062 6.67383 16.9062 7.15625C16.9062 7.71289 16.6836 8.1582 16.2383 8.5293L19.2812 13.8359C19.4297 14.1328 19.6523 14.3184 19.9863 14.3926C20.2832 14.4668 20.6172 14.4297 20.9141 14.2441L23.5859 12.6484C23.4746 12.4258 23.4375 12.166 23.4375 11.9062C23.4375 11.4238 23.5859 11.0156 23.957 10.6445C24.291 10.3105 24.6992 10.125 25.2188 10.125Z" fill="#524C31"/>
</svg>
