<svg width="24" height="24" viewBox="0 0 24 24" fill="none" xmlns="http://www.w3.org/2000/svg">
<path fill-rule="evenodd" clip-rule="evenodd" d="M9 4C9 3.4477 9.4477 3 10 3H14C14.5523 3 15 3.4477 15 4V20C15 20.5523 14.5523 21 14 21H10C9.4477 21 9 20.5523 9 20V4ZM11 5V19H13V5H11Z" fill="#2B2D33"/>
<path fill-rule="evenodd" clip-rule="evenodd" d="M16 11C16 10.4477 16.4477 10 17 10H21C21.5523 10 22 10.4477 22 11V20C22 20.5523 21.5523 21 21 21H17C16.4477 21 16 20.5523 16 20V11ZM18 12V19H20V12H18Z" fill="#2B2D33"/>
<path fill-rule="evenodd" clip-rule="evenodd" d="M3 8C2.4477 8 2 8.4477 2 9V20C2 20.5523 2.4477 21 3 21H7C7.5523 21 8 20.5523 8 20V9C8 8.4477 7.5523 8 7 8H3ZM4 19V10H6V19H4Z" fill="#2B2D33"/>
</svg>
