<svg width="24" height="24" viewBox="0 0 24 24" fill="none" xmlns="http://www.w3.org/2000/svg">
<path d="M12.4776 6.54589C12.3324 6.07609 11.6674 6.07609 11.5222 6.54589L11.1645 7.70329C11.0998 7.91289 10.9061 8.05569 10.6868 8.05569H9.47796C8.99976 8.05569 8.79446 8.66269 9.17446 8.95309L10.1949 9.73249C10.3614 9.85979 10.4309 10.0773 10.3691 10.2775L9.98956 11.5054C9.84586 11.9705 10.384 12.3459 10.7709 12.0504L11.6964 11.3433C11.8756 11.2064 12.1242 11.2064 12.3034 11.3433L13.2289 12.0504C13.6158 12.3459 14.1539 11.9705 14.0102 11.5054L13.6307 10.2775C13.5689 10.0773 13.6384 9.85979 13.8049 9.73249L14.8253 8.95309C15.2053 8.66269 15 8.05569 14.5218 8.05569H13.313C13.0937 8.05569 12.9 7.91289 12.8353 7.70329L12.4776 6.54589Z" fill="#2B2D33"/>
<path fill-rule="evenodd" clip-rule="evenodd" d="M5 3C5 2.4477 5.4477 2 6 2H18C18.5523 2 19 2.4477 19 3V4H22C22.5523 4 23 4.4477 23 5V5.1005C23 7.2222 22.1571 9.2571 20.6569 10.7574L18.2071 13.2071C18.1792 13.235 18.1501 13.2608 18.12 13.2847C17.8018 14.0857 17.4101 14.8502 16.9662 15.5408C15.9909 17.0578 14.6081 18.4451 13 18.8684V20H17V22H7V20H11V18.8684C9.3919 18.4451 8.0091 17.0578 7.0338 15.5408C6.5899 14.8502 6.1982 14.0857 5.88 13.2847C5.8499 13.2608 5.8208 13.235 5.7929 13.2071L3.3431 10.7574C1.8429 9.2571 1 7.2222 1 5.1005V5C1 4.4477 1.4477 4 2 4H5V3ZM5 9C5 9.2003 5.0067 9.4023 5.0197 9.6055L4.7574 9.3431C3.8464 8.4322 3.2586 7.2584 3.0678 6H5V9ZM18.9803 9.6055L19.2426 9.3431C20.1536 8.4322 20.7414 7.2584 20.9322 6H19V9C19 9.2003 18.9933 9.4023 18.9803 9.6055ZM7 4V9C7 10.7783 7.6774 12.8434 8.7162 14.4592C9.7941 16.1359 11.0331 17 12 17C12.9669 17 14.2059 16.1359 15.2838 14.4592C16.3226 12.8434 17 10.7783 17 9V4H7Z" fill="#2B2D33"/>
</svg>
