<svg width="30" height="30" viewBox="0 0 30 30" fill="none" xmlns="http://www.w3.org/2000/svg">
<path d="M15.246 5.375C12.2773 5.375 10.3476 6.59961 8.82609 8.78906C8.56632 9.16016 8.64054 9.7168 9.04875 9.97656L10.6444 11.2012C11.0155 11.498 11.5722 11.4238 11.8691 11.0527C12.7968 9.90234 13.5019 9.23438 14.9491 9.23438C16.0995 9.23438 17.5097 9.93945 17.5097 11.0527C17.5097 11.9062 16.8046 12.3145 15.6913 12.9453C14.3554 13.6875 12.6112 14.6152 12.6112 16.916V17.25C12.6112 17.7695 13.0194 18.1406 13.5019 18.1406H16.2109C16.6933 18.1406 17.1015 17.7695 17.1015 17.25V17.0645C17.1015 15.4688 21.7402 15.3945 21.7402 11.0898C21.7402 7.86133 18.3632 5.375 15.246 5.375ZM14.8749 19.2539C13.4277 19.2539 12.2773 20.4043 12.2773 21.8145C12.2773 23.2246 13.4277 24.375 14.8749 24.375C16.2851 24.375 17.4355 23.2246 17.4355 21.8145C17.4355 20.4043 16.2851 19.2539 14.8749 19.2539Z" fill="#524C31"/>
</svg>
