<svg width="30" height="30" viewBox="0 0 30 30" fill="none" xmlns="http://www.w3.org/2000/svg">
<path d="M20.2188 6.75C20.7012 6.75 21.1094 6.93555 21.4805 7.26953C21.8145 7.64062 22 8.04883 22 8.53125V21.5938C22 22.1133 21.8145 22.5215 21.4805 22.8555C21.1094 23.2266 20.7012 23.375 20.2188 23.375H9.53125C9.01172 23.375 8.60352 23.2266 8.26953 22.8555C7.89844 22.5215 7.75 22.1133 7.75 21.5938V8.53125C7.75 8.04883 7.89844 7.64062 8.26953 7.26953C8.60352 6.93555 9.01172 6.75 9.53125 6.75H12.5C12.5 6.11914 12.7227 5.5625 13.2051 5.08008C13.6504 4.63477 14.207 4.375 14.875 4.375C15.5059 4.375 16.0625 4.63477 16.5449 5.08008C16.9902 5.5625 17.25 6.11914 17.25 6.75H20.2188ZM11.3125 20.1094C11.5352 20.1094 11.7578 20.0352 11.9434 19.8496C12.0918 19.7012 12.2031 19.4785 12.2031 19.2188C12.2031 18.9961 12.0918 18.7734 11.9434 18.5879C11.7578 18.4395 11.5352 18.3281 11.3125 18.3281C11.0527 18.3281 10.8301 18.4395 10.6816 18.5879C10.4961 18.7734 10.4219 18.9961 10.4219 19.2188C10.4219 19.4785 10.4961 19.7012 10.6816 19.8496C10.8301 20.0352 11.0527 20.1094 11.3125 20.1094ZM11.3125 16.5469C11.5352 16.5469 11.7578 16.4727 11.9434 16.2871C12.0918 16.1387 12.2031 15.916 12.2031 15.6562C12.2031 15.4336 12.0918 15.2109 11.9434 15.0254C11.7578 14.877 11.5352 14.7656 11.3125 14.7656C11.0527 14.7656 10.8301 14.877 10.6816 15.0254C10.4961 15.2109 10.4219 15.4336 10.4219 15.6562C10.4219 15.916 10.4961 16.1387 10.6816 16.2871C10.8301 16.4727 11.0527 16.5469 11.3125 16.5469ZM11.3125 12.9844C11.5352 12.9844 11.7578 12.9102 11.9434 12.7246C12.0918 12.5762 12.2031 12.3535 12.2031 12.0938C12.2031 11.8711 12.0918 11.6484 11.9434 11.4629C11.7578 11.3145 11.5352 11.2031 11.3125 11.2031C11.0527 11.2031 10.8301 11.3145 10.6816 11.4629C10.4961 11.6484 10.4219 11.8711 10.4219 12.0938C10.4219 12.3535 10.4961 12.5762 10.6816 12.7246C10.8301 12.9102 11.0527 12.9844 11.3125 12.9844ZM14.875 5.85938C14.6152 5.85938 14.3926 5.9707 14.2441 6.11914C14.0586 6.30469 13.9844 6.52734 13.9844 6.75C13.9844 7.00977 14.0586 7.23242 14.2441 7.38086C14.3926 7.56641 14.6152 7.64062 14.875 7.64062C15.0977 7.64062 15.3203 7.56641 15.5059 7.38086C15.6543 7.23242 15.7656 7.00977 15.7656 6.75C15.7656 6.52734 15.6543 6.30469 15.5059 6.11914C15.3203 5.9707 15.0977 5.85938 14.875 5.85938ZM19.625 19.5156V18.9219C19.625 18.8477 19.5879 18.8105 19.5137 18.7363C19.4395 18.6621 19.4023 18.625 19.3281 18.625H13.9844C13.9102 18.625 13.8359 18.6621 13.7617 18.7363C13.6875 18.8105 13.6875 18.8477 13.6875 18.9219V19.5156C13.6875 19.5898 13.6875 19.6641 13.7617 19.7383C13.8359 19.8125 13.9102 19.8125 13.9844 19.8125H19.3281C19.4023 19.8125 19.4395 19.8125 19.5137 19.7383C19.5879 19.6641 19.625 19.5898 19.625 19.5156ZM19.625 15.9531V15.3594C19.625 15.2852 19.5879 15.248 19.5137 15.1738C19.4395 15.0996 19.4023 15.0625 19.3281 15.0625H13.9844C13.9102 15.0625 13.8359 15.0996 13.7617 15.1738C13.6875 15.248 13.6875 15.2852 13.6875 15.3594V15.9531C13.6875 16.0273 13.6875 16.1016 13.7617 16.1758C13.8359 16.25 13.9102 16.25 13.9844 16.25H19.3281C19.4023 16.25 19.4395 16.25 19.5137 16.1758C19.5879 16.1016 19.625 16.0273 19.625 15.9531ZM19.625 12.3906V11.7969C19.625 11.7227 19.5879 11.6855 19.5137 11.6113C19.4395 11.5371 19.4023 11.5 19.3281 11.5H13.9844C13.9102 11.5 13.8359 11.5371 13.7617 11.6113C13.6875 11.6855 13.6875 11.7227 13.6875 11.7969V12.3906C13.6875 12.4648 13.6875 12.5391 13.7617 12.6133C13.8359 12.6875 13.9102 12.6875 13.9844 12.6875H19.3281C19.4023 12.6875 19.4395 12.6875 19.5137 12.6133C19.5879 12.5391 19.625 12.4648 19.625 12.3906Z" fill="#524C31"/>
</svg>
