<svg width="24" height="24" viewBox="0 0 24 24" fill="none" xmlns="http://www.w3.org/2000/svg">
<path fill-rule="evenodd" clip-rule="evenodd" d="M11.9999 2C12.3297 2 12.6383 2.1626 12.8248 2.4347L14.3871 4.7143L17.038 5.4957C17.3543 5.589 17.6043 5.8322 17.7063 6.1459C17.8082 6.4596 17.7489 6.8033 17.5478 7.0647L15.8625 9.255L15.9385 12.0176C15.9475 12.3473 15.7935 12.6602 15.5266 12.8541C15.2598 13.048 14.9146 13.0978 14.6038 12.9873L11.9999 12.0613L9.39597 12.9873C9.08527 13.0978 8.73997 13.048 8.47317 12.8541C8.20637 12.6602 8.05227 12.3473 8.06137 12.0176L8.13737 9.255L6.45207 7.0647C6.25097 6.8033 6.19167 6.4596 6.29357 6.1459C6.39547 5.8322 6.64547 5.589 6.96187 5.4957L9.61267 4.7143L11.1751 2.4347C11.3615 2.1626 11.6701 2 11.9999 2ZM11.9999 4.7689L11.0614 6.1383C10.9314 6.328 10.7399 6.4671 10.5193 6.5321L8.92697 7.0015L9.93927 8.3172C10.0796 8.4995 10.1527 8.7246 10.1464 8.9545L10.1007 10.614L11.6649 10.0578C11.8816 9.9807 12.1183 9.9807 12.335 10.0578L13.8991 10.614L13.8535 8.9545C13.8471 8.7246 13.9203 8.4995 14.0605 8.3172L15.0729 7.0015L13.4805 6.5321C13.2599 6.4671 13.0684 6.328 12.9384 6.1383L11.9999 4.7689Z" fill="#2B2D33"/>
<path d="M3 3V5H5V3H3Z" fill="#2B2D33"/>
<path d="M19 3V5H21V3H19Z" fill="#2B2D33"/>
<path d="M20 18V20H22V18H20Z" fill="#2B2D33"/>
<path d="M2 20V18H4V20H2Z" fill="#2B2D33"/>
<path fill-rule="evenodd" clip-rule="evenodd" d="M20 12V14H22V12H24V10H22V8H20V10H18V12H20ZM20 12V10H22V12H20Z" fill="#2B2D33"/>
<path d="M2 14V12H4V14H2Z" fill="#2B2D33"/>
<path d="M4 10H6V12H4V10Z" fill="#2B2D33"/>
<path d="M2 10V8H4V10H2Z" fill="#2B2D33"/>
<path d="M2 10H0V12H2V10Z" fill="#2B2D33"/>
<path d="M11 14V22H13V14H11Z" fill="#2B2D33"/>
<path d="M18.8321 16.5547L17.8397 18.0432C17.2922 18.8645 17 19.8295 17 20.8167V22H15V20.8167C15 19.4347 15.4091 18.0836 16.1756 16.9338L17.1679 15.4453L18.8321 16.5547Z" fill="#2B2D33"/>
<path d="M6.16037 18.0432L5.16797 16.5547L6.83217 15.4453L7.82447 16.9338C8.59097 18.0836 9.00007 19.4347 9.00007 20.8167V22H7.00007V20.8167C7.00007 19.8295 6.70787 18.8645 6.16037 18.0432Z" fill="#2B2D33"/>
</svg>
